<svg xmlns="http://www.w3.org/2000/svg" width="213.479" height="213.479" viewBox="0 0 213.479 213.479"><defs><style>.a{fill:#ab0cff;}</style></defs><path class="a" d="M213.479,25.017A25.044,25.044,0,0,0,188.462,0H25.017A25.044,25.044,0,0,0,0,25.017V188.462a25.044,25.044,0,0,0,25.017,25.017H188.462a25.044,25.044,0,0,0,25.017-25.017Zm-16.678,0V98.4H115.079V16.678h73.383A8.349,8.349,0,0,1,196.8,25.017ZM25.017,16.678H98.4V98.4H16.678V25.017A8.349,8.349,0,0,1,25.017,16.678ZM16.678,188.462V115.079H98.4V196.8H25.017A8.349,8.349,0,0,1,16.678,188.462ZM188.462,196.8H115.079V115.079H196.8v73.383A8.349,8.349,0,0,1,188.462,196.8ZM32.8,57.539A8.338,8.338,0,0,1,41.14,49.2H49.2V41.14a8.339,8.339,0,1,1,16.678,0V49.2h8.061a8.339,8.339,0,0,1,0,16.678H65.878v8.061a8.339,8.339,0,0,1-16.678,0V65.878H41.14A8.338,8.338,0,0,1,32.8,57.539Zm105.647-5.7a8.338,8.338,0,1,1,11.792-11.792l5.7,5.7,5.7-5.7a8.338,8.338,0,0,1,11.792,11.792l-5.7,5.7,5.7,5.7A8.338,8.338,0,0,1,161.64,75.032l-5.7-5.7-5.7,5.7A8.338,8.338,0,1,1,138.447,63.24l5.7-5.7Zm-56.17,104.1a8.338,8.338,0,0,1-8.339,8.339H41.14a8.339,8.339,0,0,1,0-16.678h32.8A8.338,8.338,0,0,1,82.278,155.94Zm98.4,16.4a8.338,8.338,0,0,1-8.339,8.339h-32.8a8.339,8.339,0,1,1,0-16.678h32.8A8.338,8.338,0,0,1,180.678,172.339Zm0-32.8a8.338,8.338,0,0,1-8.339,8.339h-32.8a8.339,8.339,0,1,1,0-16.678h32.8A8.338,8.338,0,0,1,180.678,139.54Zm0,0"/></svg>